<?xml version="1.0" encoding="UTF-8" standalone="no"?>
<svg
   xmlns:dc="http://purl.org/dc/elements/1.1/"
   xmlns:cc="http://creativecommons.org/ns#"
   xmlns:rdf="http://www.w3.org/1999/02/22-rdf-syntax-ns#"
   xmlns:svg="http://www.w3.org/2000/svg"
   xmlns="http://www.w3.org/2000/svg"
   xmlns:sodipodi="http://sodipodi.sourceforge.net/DTD/sodipodi-0.dtd"
   xmlns:inkscape="http://www.inkscape.org/namespaces/inkscape"
   enable-background="new 0 0 64 64"
   height="32"
   version="1.1"
   viewBox="0 0 32 32"
   width="32"
   xml:space="preserve"
   id="svg2"
   inkscape:version="0.48.4 r9939"
   sodipodi:docname="icon-64.svg"><metadata
     id="metadata38"><rdf:RDF><cc:Work
         rdf:about=""><dc:format>image/svg+xml</dc:format><dc:type
           rdf:resource="http://purl.org/dc/dcmitype/StillImage" /><dc:title></dc:title></cc:Work></rdf:RDF></metadata><defs
     id="defs36"><inkscape:perspective
       sodipodi:type="inkscape:persp3d"
       inkscape:vp_x="0 : 32 : 1"
       inkscape:vp_y="0 : 1000 : 0"
       inkscape:vp_z="64 : 32 : 1"
       inkscape:persp3d-origin="32 : 21.333333 : 1"
       id="perspective6593" /><marker
       inkscape:stockid="TriangleOutM"
       orient="auto"
       refY="0"
       refX="0"
       id="TriangleOutM"
       style="overflow:visible"><path
         id="path4013"
         d="m 5.77,0 -8.65,5 0,-10 8.65,5 z"
         style="fill-rule:evenodd;stroke:#000000;stroke-width:1pt"
         transform="scale(0.4,0.4)"
         inkscape:connector-curvature="0" /></marker><marker
       inkscape:stockid="DotL"
       orient="auto"
       refY="0"
       refX="0"
       id="DotL"
       style="overflow:visible"><path
         id="path3929"
         d="m -2.5,-1 c 0,2.76 -2.24,5 -5,5 -2.76,0 -5,-2.24 -5,-5 0,-2.76 2.24,-5 5,-5 2.76,0 5,2.24 5,5 z"
         style="fill-rule:evenodd;stroke:#000000;stroke-width:1pt"
         transform="matrix(0.8,0,0,0.8,5.92,0.8)"
         inkscape:connector-curvature="0" /></marker><marker
       inkscape:stockid="Tail"
       orient="auto"
       refY="0"
       refX="0"
       id="Tail"
       style="overflow:visible"><g
         id="g3904"
         transform="scale(-1.2,-1.2)"><path
           id="path3906"
           d="M -3.8048674,-3.9585227 0.54352094,0"
           style="fill:none;stroke:#000000;stroke-width:0.80000001;stroke-linecap:round"
           inkscape:connector-curvature="0" /><path
           id="path3908"
           d="M -1.2866832,-3.9585227 3.0617053,0"
           style="fill:none;stroke:#000000;stroke-width:0.80000001;stroke-linecap:round"
           inkscape:connector-curvature="0" /><path
           id="path3910"
           d="M 1.3053582,-3.9585227 5.6537466,0"
           style="fill:none;stroke:#000000;stroke-width:0.80000001;stroke-linecap:round"
           inkscape:connector-curvature="0" /><path
           id="path3912"
           d="M -3.8048674,4.1775838 0.54352094,0.21974226"
           style="fill:none;stroke:#000000;stroke-width:0.80000001;stroke-linecap:round"
           inkscape:connector-curvature="0" /><path
           id="path3914"
           d="M -1.2866832,4.1775838 3.0617053,0.21974226"
           style="fill:none;stroke:#000000;stroke-width:0.80000001;stroke-linecap:round"
           inkscape:connector-curvature="0" /><path
           id="path3916"
           d="M 1.3053582,4.1775838 5.6537466,0.21974226"
           style="fill:none;stroke:#000000;stroke-width:0.80000001;stroke-linecap:round"
           inkscape:connector-curvature="0" /></g></marker><marker
       inkscape:stockid="Arrow2Sstart"
       orient="auto"
       refY="0"
       refX="0"
       id="Arrow2Sstart"
       style="overflow:visible"><path
         id="path3898"
         style="fill-rule:evenodd;stroke-width:0.625;stroke-linejoin:round"
         d="M 8.7185878,4.0337352 -2.2072895,0.01601326 8.7185884,-4.0017078 c -1.7454984,2.3720609 -1.7354408,5.6174519 -6e-7,8.035443 z"
         transform="matrix(0.3,0,0,0.3,-0.69,0)"
         inkscape:connector-curvature="0" /></marker><marker
       inkscape:stockid="Arrow1Mend"
       orient="auto"
       refY="0"
       refX="0"
       id="Arrow1Mend"
       style="overflow:visible"><path
         id="path3877"
         d="M 0,0 5,-5 -12.5,0 5,5 0,0 z"
         style="fill-rule:evenodd;stroke:#000000;stroke-width:1pt"
         transform="matrix(-0.4,0,0,-0.4,-4,0)"
         inkscape:connector-curvature="0" /></marker><marker
       inkscape:stockid="Arrow1Send"
       orient="auto"
       refY="0"
       refX="0"
       id="Arrow1Send"
       style="overflow:visible"><path
         id="path3883"
         d="M 0,0 5,-5 -12.5,0 5,5 0,0 z"
         style="fill-rule:evenodd;stroke:#000000;stroke-width:1pt"
         transform="matrix(-0.2,0,0,-0.2,-1.2,0)"
         inkscape:connector-curvature="0" /></marker><marker
       inkscape:stockid="Arrow1Lend"
       orient="auto"
       refY="0"
       refX="0"
       id="Arrow1Lend"
       style="overflow:visible"><path
         id="path3871"
         d="M 0,0 5,-5 -12.5,0 5,5 0,0 z"
         style="fill-rule:evenodd;stroke:#000000;stroke-width:1pt"
         transform="matrix(-0.8,0,0,-0.8,-10,0)"
         inkscape:connector-curvature="0" /></marker><marker
       inkscape:stockid="TriangleInL"
       orient="auto"
       refY="0"
       refX="0"
       id="TriangleInL"
       style="overflow:visible"><path
         id="path4001"
         d="m 5.77,0 -8.65,5 0,-10 8.65,5 z"
         style="fill-rule:evenodd;stroke:#000000;stroke-width:1pt"
         transform="scale(-0.8,-0.8)"
         inkscape:connector-curvature="0" /></marker><marker
       inkscape:stockid="Arrow2Lstart"
       orient="auto"
       refY="0"
       refX="0"
       id="Arrow2Lstart"
       style="overflow:visible"><path
         id="path3886"
         style="fill-rule:evenodd;stroke-width:0.625;stroke-linejoin:round"
         d="M 8.7185878,4.0337352 -2.2072895,0.01601326 8.7185884,-4.0017078 c -1.7454984,2.3720609 -1.7354408,5.6174519 -6e-7,8.035443 z"
         transform="matrix(1.1,0,0,1.1,1.1,0)"
         inkscape:connector-curvature="0" /></marker></defs><sodipodi:namedview
     pagecolor="#ffffff"
     bordercolor="#666666"
     borderopacity="1"
     objecttolerance="10"
     gridtolerance="10"
     guidetolerance="10"
     inkscape:pageopacity="0"
     inkscape:pageshadow="2"
     inkscape:window-width="1315"
     inkscape:window-height="744"
     id="namedview34"
     showgrid="true"
     inkscape:zoom="8"
     inkscape:cx="41.779841"
     inkscape:cy="11.513602"
     inkscape:window-x="51"
     inkscape:window-y="24"
     inkscape:window-maximized="1"
     inkscape:current-layer="svg2"
     showguides="true"
     inkscape:guide-bbox="true"><inkscape:grid
       type="xygrid"
       id="grid6535"
       empspacing="5"
       visible="true"
       enabled="true"
       snapvisiblegridlinesonly="true" /></sodipodi:namedview><g
     id="g13"
     transform="matrix(0.60956108,0,0,0.60956108,-3.045296,-0.87256158)"
     style="fill:#f44800"><path
       style="fill:#f44800"
       inkscape:connector-curvature="0"
       id="path15"
       d="M 49,28.8 C 49,43.763 32,54 32,54 c 0,0 -9.389,-42 0,-42 9.389,0 17,7.522 17,16.8 z" /></g><path
     sodipodi:type="arc"
     style="fill:#f44800;fill-opacity:1"
     id="path3031"
     sodipodi:cx="-25.966103"
     sodipodi:cy="22.440678"
     sodipodi:rx="2.9152544"
     sodipodi:ry="2.7796609"
     d="m -23.050848,22.440678 a 2.9152544,2.7796609 0 1 1 -5.830509,0 2.9152544,2.7796609 0 1 1 5.830509,0 z"
     transform="matrix(1.2296499,0,0,1.2296499,48.095343,-20.370593)" /><g
     id="g17"
     transform="matrix(0.6301956,0,0,0.6301956,-4.0563854,-1.1201749)"
     style="fill:#f44800"><ellipse
       style="fill:#f44800"
       sodipodi:ry="18"
       sodipodi:rx="20"
       sodipodi:cy="30"
       sodipodi:cx="32"
       id="ellipse19"
       ry="18"
       rx="20"
       cy="30"
       cx="32"
       d="M 52,30 C 52,39.941125 43.045695,48 32,48 20.954305,48 12,39.941125 12,30 12,20.058875 20.954305,12 32,12 43.045695,12 52,20.058875 52,30 z" /></g><g
     id="Layer_2"
     transform="matrix(0.6301956,0,0,0.6301956,-3.9959629,-4.1412973)" /><rect
     style="fill:#f44800;fill-opacity:1"
     id="rect3035"
     width="9.6346731"
     height="0.79387945"
     x="11.773156"
     y="12.75069"
     ry="0.39693972"
     transform="matrix(0.87214034,-0.48925579,0.46734441,0.88407534,0,0)" /><path
     sodipodi:type="arc"
     style="fill:#f44800;fill-opacity:1"
     id="path3041"
     sodipodi:cx="48.881355"
     sodipodi:cy="12.542373"
     sodipodi:rx="1.2881356"
     sodipodi:ry="1.2881356"
     d="m 50.169491,12.542373 a 1.2881356,1.2881356 0 1 1 -2.576271,0 1.2881356,1.2881356 0 1 1 2.576271,0 z"
     transform="matrix(0.6301956,0,0,0.6301956,-5.8758681,-6.8757051)" /><path
     sodipodi:type="arc"
     style="fill:#ffffff;fill-opacity:1"
     id="path3045"
     sodipodi:cx="1.8983051"
     sodipodi:cy="51.389832"
     sodipodi:rx="15.322034"
     sodipodi:ry="15.322034"
     d="m 17.220339,51.389832 a 15.322034,15.322034 0 1 1 -30.644068,0 15.322034,15.322034 0 1 1 30.644068,0 z"
     transform="matrix(0.75846546,0,0,0.67481124,14.582573,-16.9219)" /><rect
     style="fill:#f44800;fill-opacity:1"
     id="rect3035-4"
     width="9.6346731"
     height="0.79387945"
     x="-17.210012"
     y="-3.1200767"
     ry="0.39693972"
     transform="matrix(-0.87214034,-0.48925579,-0.46734441,0.88407534,0,0)" /><path
     sodipodi:type="arc"
     style="fill:#f44800;fill-opacity:1"
     id="path3041-4"
     sodipodi:cx="48.881355"
     sodipodi:cy="12.542373"
     sodipodi:rx="1.2881356"
     sodipodi:ry="1.2881356"
     d="m 50.169491,12.542373 a 1.2881356,1.2881356 0 1 1 -2.576271,0 1.2881356,1.2881356 0 1 1 2.576271,0 z"
     transform="matrix(-0.6301956,0,0,0.6301956,38.570366,-6.7264784)" /><rect
     style="fill:#ffffff;fill-opacity:1;stroke:none"
     id="rect6678"
     width="1.8854158"
     height="0.86796135"
     x="11.44383"
     y="18.69837" /><path
     style="fill:#6699cc;fill-opacity:1;stroke:none"
     d="m 11.875788,13.990751 1.075271,1.075273 3.225814,-3.225814 3.225814,3.225814 1.075271,-1.075273 -4.301085,-4.3010841 z"
     id="path6698"
     inkscape:connector-curvature="0" /><path
     style="fill:#6699cc;fill-opacity:1;stroke:none"
     d="m 11.879747,21.226376 1.07527,-1.075272 3.225815,3.225813 3.225813,-3.225813 1.075271,1.075272 -4.301084,4.301084 z"
     id="path6698-3"
     inkscape:connector-curvature="0" /></svg>