<?xml version="1.0" encoding="UTF-8" standalone="no"?>
<svg
   xmlns:dc="http://purl.org/dc/elements/1.1/"
   xmlns:cc="http://creativecommons.org/ns#"
   xmlns:rdf="http://www.w3.org/1999/02/22-rdf-syntax-ns#"
   xmlns:svg="http://www.w3.org/2000/svg"
   xmlns="http://www.w3.org/2000/svg"
   xmlns:sodipodi="http://sodipodi.sourceforge.net/DTD/sodipodi-0.dtd"
   xmlns:inkscape="http://www.inkscape.org/namespaces/inkscape"
   enable-background="new 0 0 64 64"
   height="64px"
   version="1.1"
   viewBox="0 0 64 64"
   width="64px"
   xml:space="preserve"
   id="svg2"
   inkscape:version="0.48.4 r9939"
   sodipodi:docname="mshw5.svg"><metadata
     id="metadata38"><rdf:RDF><cc:Work
         rdf:about=""><dc:format>image/svg+xml</dc:format><dc:type
           rdf:resource="http://purl.org/dc/dcmitype/StillImage" /><dc:title></dc:title></cc:Work></rdf:RDF></metadata><defs
     id="defs36"><inkscape:perspective
       sodipodi:type="inkscape:persp3d"
       inkscape:vp_x="0 : 32 : 1"
       inkscape:vp_y="0 : 1000 : 0"
       inkscape:vp_z="64 : 32 : 1"
       inkscape:persp3d-origin="32 : 21.333333 : 1"
       id="perspective6593" /><marker
       inkscape:stockid="TriangleOutM"
       orient="auto"
       refY="0.0"
       refX="0.0"
       id="TriangleOutM"
       style="overflow:visible"><path
         id="path4013"
         d="M 5.77,0.0 L -2.88,5.0 L -2.88,-5.0 L 5.77,0.0 z "
         style="fill-rule:evenodd;stroke:#000000;stroke-width:1.0pt"
         transform="scale(0.4)" /></marker><marker
       inkscape:stockid="DotL"
       orient="auto"
       refY="0.0"
       refX="0.0"
       id="DotL"
       style="overflow:visible"><path
         id="path3929"
         d="M -2.5,-1.0 C -2.5,1.7600000 -4.7400000,4.0 -7.5,4.0 C -10.260000,4.0 -12.5,1.7600000 -12.5,-1.0 C -12.5,-3.7600000 -10.260000,-6.0 -7.5,-6.0 C -4.7400000,-6.0 -2.5,-3.7600000 -2.5,-1.0 z "
         style="fill-rule:evenodd;stroke:#000000;stroke-width:1.0pt"
         transform="scale(0.8) translate(7.4, 1)" /></marker><marker
       inkscape:stockid="Tail"
       orient="auto"
       refY="0.0"
       refX="0.0"
       id="Tail"
       style="overflow:visible"><g
         id="g3904"
         transform="scale(-1.2)"><path
           id="path3906"
           d="M -3.8048674,-3.9585227 L 0.54352094,0"
           style="fill:none;fill-rule:evenodd;stroke:#000000;stroke-width:0.8;stroke-linecap:round" /><path
           id="path3908"
           d="M -1.2866832,-3.9585227 L 3.0617053,0"
           style="fill:none;fill-rule:evenodd;stroke:#000000;stroke-width:0.8;stroke-linecap:round" /><path
           id="path3910"
           d="M 1.3053582,-3.9585227 L 5.6537466,0"
           style="fill:none;fill-rule:evenodd;stroke:#000000;stroke-width:0.8;stroke-linecap:round" /><path
           id="path3912"
           d="M -3.8048674,4.1775838 L 0.54352094,0.21974226"
           style="fill:none;fill-rule:evenodd;stroke:#000000;stroke-width:0.8;stroke-linecap:round" /><path
           id="path3914"
           d="M -1.2866832,4.1775838 L 3.0617053,0.21974226"
           style="fill:none;fill-rule:evenodd;stroke:#000000;stroke-width:0.8;stroke-linecap:round" /><path
           id="path3916"
           d="M 1.3053582,4.1775838 L 5.6537466,0.21974226"
           style="fill:none;fill-rule:evenodd;stroke:#000000;stroke-width:0.8;stroke-linecap:round" /></g></marker><marker
       inkscape:stockid="Arrow2Sstart"
       orient="auto"
       refY="0.0"
       refX="0.0"
       id="Arrow2Sstart"
       style="overflow:visible"><path
         id="path3898"
         style="fill-rule:evenodd;stroke-width:0.62500000;stroke-linejoin:round"
         d="M 8.7185878,4.0337352 L -2.2072895,0.016013256 L 8.7185884,-4.0017078 C 6.9730900,-1.6296469 6.9831476,1.6157441 8.7185878,4.0337352 z "
         transform="scale(0.3) translate(-2.3,0)" /></marker><marker
       inkscape:stockid="Arrow1Mend"
       orient="auto"
       refY="0.0"
       refX="0.0"
       id="Arrow1Mend"
       style="overflow:visible;"><path
         id="path3877"
         d="M 0.0,0.0 L 5.0,-5.0 L -12.5,0.0 L 5.0,5.0 L 0.0,0.0 z "
         style="fill-rule:evenodd;stroke:#000000;stroke-width:1.0pt;"
         transform="scale(0.4) rotate(180) translate(10,0)" /></marker><marker
       inkscape:stockid="Arrow1Send"
       orient="auto"
       refY="0.0"
       refX="0.0"
       id="Arrow1Send"
       style="overflow:visible;"><path
         id="path3883"
         d="M 0.0,0.0 L 5.0,-5.0 L -12.5,0.0 L 5.0,5.0 L 0.0,0.0 z "
         style="fill-rule:evenodd;stroke:#000000;stroke-width:1.0pt;"
         transform="scale(0.2) rotate(180) translate(6,0)" /></marker><marker
       inkscape:stockid="Arrow1Lend"
       orient="auto"
       refY="0.0"
       refX="0.0"
       id="Arrow1Lend"
       style="overflow:visible;"><path
         id="path3871"
         d="M 0.0,0.0 L 5.0,-5.0 L -12.5,0.0 L 5.0,5.0 L 0.0,0.0 z "
         style="fill-rule:evenodd;stroke:#000000;stroke-width:1.0pt;"
         transform="scale(0.8) rotate(180) translate(12.5,0)" /></marker><marker
       inkscape:stockid="TriangleInL"
       orient="auto"
       refY="0.0"
       refX="0.0"
       id="TriangleInL"
       style="overflow:visible"><path
         id="path4001"
         d="M 5.77,0.0 L -2.88,5.0 L -2.88,-5.0 L 5.77,0.0 z "
         style="fill-rule:evenodd;stroke:#000000;stroke-width:1.0pt"
         transform="scale(-0.8)" /></marker><marker
       inkscape:stockid="Arrow2Lstart"
       orient="auto"
       refY="0.0"
       refX="0.0"
       id="Arrow2Lstart"
       style="overflow:visible"><path
         id="path3886"
         style="fill-rule:evenodd;stroke-width:0.62500000;stroke-linejoin:round"
         d="M 8.7185878,4.0337352 L -2.2072895,0.016013256 L 8.7185884,-4.0017078 C 6.9730900,-1.6296469 6.9831476,1.6157441 8.7185878,4.0337352 z "
         transform="scale(1.1) translate(1,0)" /></marker></defs><sodipodi:namedview
     pagecolor="#ffffff"
     bordercolor="#666666"
     borderopacity="1"
     objecttolerance="10"
     gridtolerance="10"
     guidetolerance="10"
     inkscape:pageopacity="0"
     inkscape:pageshadow="2"
     inkscape:window-width="1315"
     inkscape:window-height="744"
     id="namedview34"
     showgrid="true"
     inkscape:zoom="8"
     inkscape:cx="22.51157"
     inkscape:cy="30.105765"
     inkscape:window-x="51"
     inkscape:window-y="24"
     inkscape:window-maximized="1"
     inkscape:current-layer="svg2"
     showguides="true"
     inkscape:guide-bbox="true"><inkscape:grid
       type="xygrid"
       id="grid6535"
       empspacing="5"
       visible="true"
       enabled="true"
       snapvisiblegridlinesonly="true" /></sodipodi:namedview><g
     id="g13"
     transform="matrix(1.2186307,0,0,1.2186307,-6.3412719,-1.8873205)"
     style="fill:#f44800"><path
       style="fill:#f44800"
       inkscape:connector-curvature="0"
       id="path15"
       d="M 49,28.8 C 49,43.763 32,54 32,54 c 0,0 -9.389,-42 0,-42 9.389,0 17,7.522 17,16.8 z" /></g><path
     sodipodi:type="arc"
     style="fill:#f44800;fill-opacity:1"
     id="path3031"
     sodipodi:cx="-25.966103"
     sodipodi:cy="22.440678"
     sodipodi:rx="2.9152544"
     sodipodi:ry="2.7796609"
     d="m -23.050848,22.440678 a 2.9152544,2.7796609 0 1 1 -5.830509,0 2.9152544,2.7796609 0 1 1 5.830509,0 z"
     transform="matrix(2.4583083,0,0,2.4583083,95.898774,-40.867663)" /><g
     id="g17"
     transform="matrix(1.2598831,0,0,1.2598831,-8.3626354,-2.3823482)"
     style="fill:#f44800"><ellipse
       style="fill:#f44800"
       sodipodi:ry="18"
       sodipodi:rx="20"
       sodipodi:cy="30"
       sodipodi:cx="32"
       id="ellipse19"
       ry="18"
       rx="20"
       cy="30"
       cx="32"
       d="M 52,30 C 52,39.941125 43.045695,48 32,48 20.954305,48 12,39.941125 12,30 12,20.058875 20.954305,12 32,12 43.045695,12 52,20.058875 52,30 z" /></g><g
     id="Layer_2"
     transform="matrix(1.2598831,0,0,1.2598831,-8.2418392,-8.4221575)" /><rect
     style="fill:#f44800;fill-opacity:1"
     id="rect3035"
     width="19.26158"
     height="1.5871189"
     x="23.379766"
     y="25.242544"
     ry="0.79355943"
     transform="matrix(0.87214034,-0.48925579,0.46734441,0.88407534,0,0)" /><path
     sodipodi:type="arc"
     style="fill:#f44800;fill-opacity:1"
     id="path3041"
     sodipodi:cx="48.881355"
     sodipodi:cy="12.542373"
     sodipodi:rx="1.2881356"
     sodipodi:ry="1.2881356"
     d="m 50.169491,12.542373 a 1.2881356,1.2881356 0 1 1 -2.576271,0 1.2881356,1.2881356 0 1 1 2.576271,0 z"
     transform="matrix(1.2598831,0,0,1.2598831,-12.000134,-13.888768)" /><path
     sodipodi:type="arc"
     style="fill:#ffffff;fill-opacity:1"
     id="path3045"
     sodipodi:cx="1.8983051"
     sodipodi:cy="51.389832"
     sodipodi:rx="15.322034"
     sodipodi:ry="15.322034"
     d="m 17.220339,51.389832 a 15.322034,15.322034 0 1 1 -30.644068,0 15.322034,15.322034 0 1 1 30.644068,0 z"
     transform="matrix(1.5163194,0,0,1.3490784,28.900252,-33.973059)" /><rect
     style="fill:#f44800;fill-opacity:1"
     id="rect3035-4"
     width="19.26158"
     height="1.5871189"
     x="-34.115482"
     y="-6.2384214"
     ry="0.79355943"
     transform="matrix(-0.87214034,-0.48925579,-0.46734441,0.88407534,0,0)" /><path
     sodipodi:type="arc"
     style="fill:#f44800;fill-opacity:1"
     id="path3041-4"
     sodipodi:cx="48.881355"
     sodipodi:cy="12.542373"
     sodipodi:rx="1.2881356"
     sodipodi:ry="1.2881356"
     d="m 50.169491,12.542373 a 1.2881356,1.2881356 0 1 1 -2.576271,0 1.2881356,1.2881356 0 1 1 2.576271,0 z"
     transform="matrix(-1.2598831,0,0,1.2598831,76.8565,-13.590435)" /><rect
     style="fill:#ffffff;fill-opacity:1;stroke:none"
     id="rect6678"
     width="3.7693114"
     height="1.7352228"
     x="22.625296"
     y="37.238762" /><path
     style="fill:#6699cc;fill-opacity:1;stroke:none"
     d="m 23.488867,27.827322 2.149675,2.149676 6.449026,-6.449026 6.449027,6.449026 2.149675,-2.149676 -8.598702,-8.598702 z"
     id="path6698"
     inkscape:connector-curvature="0" /><path
     style="fill:#6699cc;fill-opacity:1;stroke:none"
     d="m 23.49678,42.292736 2.149675,-2.149677 6.449027,6.449027 6.449025,-6.449027 2.149676,2.149677 -8.598701,8.598701 z"
     id="path6698-3"
     inkscape:connector-curvature="0" /></svg>